<svg version="1.2" xmlns="http://www.w3.org/2000/svg" viewBox="0 0 30 32" width="30" height="32">
	<title>logo-svg</title>
	<style>
		.s0 { fill: #023e8a } 
	</style>
	<path id="Layer" fill-rule="evenodd" class="s0" d="m32.9-0.1h1v35.3h-1zm-13.3 1c2.4 0.8 5.8 3.2 5.8 3.9 0 0.2-0.3 0.9-0.7 1.6-2.7 4.8-5.2 6.5-8 5.6-1.1-0.4-1.7-0.8-4-2.4-3.5-2.5-5-3.3-7.4-4.1l-1.2-0.4 0.5-0.6c1.8-1.9 5.2-3.7 7.9-4.1 2-0.4 5.4-0.1 7.1 0.5zm21.8 2.4h1.7l-0.1 7.3v7.3l-0.7 0.1q-0.7 0-0.8-0.2c0-0.1-0.1-3.4-0.1-7.3zm4.9 0h0.6c0.6 0 0.7 0 1 0.4 0.3 0.5 5.5 7.2 7.8 10l1 1.4 0.1-5.9v-5.9h1.5v14.7h-0.6c-0.7 0-0.6 0.1-3.3-3.4-0.6-0.8-1.9-2.6-2.9-3.8-1-1.3-2.2-2.9-2.7-3.5-0.4-0.6-0.9-1-0.9-1.1-0.1 0-0.1 2.7-0.1 5.9v5.9h-1.5zm13 0h5.9 5.8v1.2h-2.5l-2.5 0.1v6.7 6.6h-1.6v-6.6-6.7h-2.6l-2.5-0.1zm17.7 0h4.9v1.3h-8.3v5.2h7.3v1.4h-7.3v5.4h8.6v1.4h-5.1c-4.4 0-5 0-5.1-0.2-0.1-0.3-0.1-14.3 0-14.4 0.1 0 2.3-0.1 5-0.1zm7.4 0l3.7 0.1c3.5 0 3.8 0 4.6 0.3 0.6 0.3 1 0.6 1.6 1.2 1.1 1.1 1.3 1.8 1.3 3.5 0 1 0 1.3-0.4 2.1-0.4 1-1.1 1.6-2.1 2.2l-0.7 0.3 1.7 2.3c0.8 1.3 1.6 2.4 1.6 2.5 0.1 0.2-0.1 0.2-0.7 0.2l-0.8-0.1-1.6-2.2-1.6-2.3h-2.5-2.6v4.6h-1.5zm13.5 0h1.5v14.7h-1.5zm5.5 0h0.6l0.7 1.4c0.5 0.8 1.4 2.4 2.2 3.7 0.7 1.3 1.7 3.1 2.3 4 0.5 0.9 1 1.7 1 1.7 0 0 1.5-2.5 3.1-5.4l3.1-5.4h1.3v14.7h-1.5l-0.1-5.8v-5.8l-2.8 4.9c-2.6 4.5-2.8 4.8-3.1 4.8-0.4 0-0.6-0.2-2.7-4-1.3-2.2-2.6-4.4-2.8-4.8l-0.5-0.8-0.1 5.8v5.7h-0.7c-0.5 0-0.7-0.1-0.7-0.2-0.2-0.3-0.1-14.3 0-14.4 0 0 0.3-0.1 0.7-0.1zm-86.8 1.3c-1 0.5-1.8 1.8-1.8 3 0 0.5 0.4 1.6 0.8 2.1 0.5 0.4 1.3 0.8 2.1 0.9 1.3 0.2 2.8-0.9 3.2-2.3 0.2-1.2 0-2-0.7-2.9-0.9-1-2.4-1.4-3.6-0.8zm69.4 0.1c0 0-0.1 1.7-0.1 3.7v3.5h2.6c3 0 3.7-0.1 4.6-1 0.8-0.7 1.1-1.5 1-2.8 0-0.9-0.1-1.2-0.5-1.8-0.5-0.8-1.5-1.4-2.7-1.6-1-0.1-4.7-0.2-4.9 0zm-82.5 1.3c0.3 0 2.5 1.2 3.7 1.9 3.9 2.6 7 6.2 8.3 9.6 0.8 2.1 0.9 2.7 0.8 5.1 0 2 0 2.4-0.3 3.5-0.8 2.7-2 4.3-3.8 5.2-1 0.5-2.4 0.9-3 0.8h-0.5l0.6-0.4c0.7-0.3 1.4-1.2 1.4-1.6 0-0.4-0.3-0.7-1.4-1.1-3.9-1.7-6.9-5.1-8.3-9.4-0.5-1.7-0.7-2.7-0.7-4.7 0-3 1-6.1 2.5-8.2 0.2-0.4 0.5-0.7 0.7-0.7zm23.4 0.3c0.1 0 0.8 1.2 1.3 2.2 2 3.8 2 9.1 0 13.3-1.4 2.9-4.2 5.6-7.5 7.2-1.8 0.9-5.6 2.2-6.2 2.1-0.3 0-0.3-0.1 0.3-0.4 5.2-3.1 9.6-11.5 11.6-22.2 0.2-0.9 0.3-1.7 0.4-1.9 0-0.2 0.1-0.3 0.1-0.3zm77 12.3c0.2 0.3 0.2 0.3-0.5 2.2-0.9 2.4-1 2.8-0.9 3 0 0 0.5 0.1 1 0.1 1 0 1.3 0.2 1.3 0.6 0 0.5-0.4 0.6-1.6 0.7-0.7 0-1.3 0.1-1.3 0.1-0.1 0.1-0.6 1.9-1.2 4-0.6 2.2-1.2 4.1-1.4 4.3-0.3 0.5-0.7 0.5-0.9 0-0.2-0.4-0.1-0.7 1.3-5.7 0.3-1.4 0.6-2.5 0.6-2.6-0.2-0.3-4.4 0.2-5.4 0.6-0.1 0-0.7 1.4-1.3 3.3-0.9 2.7-1.1 3.3-1.4 3.4-0.9 0.5-1.6-0.9-1.6-3.2 0-1.9 0.6-3 1.9-3.8 0.4-0.3 0.8-0.6 1-0.8 0.1-0.1 0.7-1.5 1.2-3 0.6-1.5 1.1-2.8 1.2-3 0.1-0.5 1-0.5 1.2 0 0.1 0.1-0.3 1.3-0.8 2.7-0.5 1.3-0.9 2.5-0.9 2.7 0 0.1 0.1 0.2 0.3 0.1 0.4-0.1 3.2-0.4 4.3-0.4h0.8l1-2.6c0.6-1.4 1.1-2.7 1.2-2.8 0.2-0.3 0.6-0.3 0.9 0.1zm-26.3 1.1c3 1.1 4.8 3.5 5 6.7 0.2 3.7-2.1 6.8-5.6 7.8-1.1 0.3-3.3 0.3-4.4 0-4.6-1.2-6.9-6.4-4.8-10.8 0.8-1.8 2.6-3.2 4.7-3.9 1.2-0.3 3.8-0.2 5.1 0.2zm-29-0.1c2 0.4 3.4 1.4 4.1 3 0.4 0.7 0.4 1 0.4 2.1 0 1.1 0 1.4-0.4 2.2-0.4 1-1.4 2-2.4 2.4-1 0.5-2.3 0.7-4.5 0.7h-2v4.2h-2.8v-7.3c0-4 0-7.3 0.1-7.4 0.2-0.2 6.4-0.1 7.5 0.1zm13.4 0q3 0.6 4.1 2.9c0.3 0.7 0.3 1 0.3 2.2 0 1.3 0 1.5-0.3 2.2-0.4 0.8-1.4 1.9-2.2 2.3l-0.5 0.2 0.4 0.6c0.6 0.7 2.8 4.1 2.8 4.2 0 0-0.6 0-1.3 0h-1.4l-0.4-0.5c-0.2-0.3-0.9-1.2-1.5-2.1l-1.1-1.6h-3.8v4.3l-2.7-0.1-0.1-7.2c0-4 0-7.3 0.1-7.4 0.1-0.3 6.2-0.2 7.6 0zm25.2 0.3c0.1 0.2 0.1 0.6-0.2 1.7-0.2 0.8-0.4 1.5-0.3 1.6 0 0 0.3-0.2 0.6-0.5 2-2.5 3.9-3.5 5.2-2.9 1.5 0.6 1.5 2.8 0.1 5-1.2 2-3.1 3.3-5.5 4.1-0.6 0.2-1 0.4-1 0.5 0 0.3 2.2 3 3.4 4.2 0.7 0.7 1.5 1.4 2.3 1.8 0.6 0.4 1.3 0.8 1.4 0.9 0.6 0.4 0.4 1.1-0.3 1.1-0.2 0-0.9-0.3-1.4-0.7-2.1-1.2-3.3-2.3-5.6-5.2-0.7-0.9-1.3-1.6-1.4-1.6 0 0.1-0.1 0.3-0.2 0.6-0.1 0.2-0.3 0.7-0.4 1-0.7 1.8-0.9 2.1-1.5 1.7-0.5-0.3-0.4-0.6 0.1-2.1 1.1-2.7 1.7-4.5 2.5-7.6 0.5-1.7 0.9-3.2 0.9-3.3 0 0 0.1-0.2 0.3-0.4 0.3-0.3 0.8-0.3 1 0.1zm3.7 1.2c-0.6 0.3-2.2 1.8-3.1 3-0.7 1-2.1 3.3-2.1 3.6 0 0.4 0.8 0.1 2.4-0.7 2.5-1.2 4.1-3.2 4.1-5.1 0-1.1-0.2-1.3-1.3-0.8zm-17.3 0.7c-1.4 0.3-2.8 1.5-3.4 2.9-1.3 2.9 0.3 6.5 3.4 7.1 3.2 0.7 6-1.3 6.2-4.5 0.3-3.6-2.6-6.2-6.2-5.5zm-29.8 5.8h1.9c2.9 0 3.9-0.4 4.5-1.6 0.5-1.2 0.1-2.9-0.8-3.5-0.8-0.5-1.6-0.7-3.7-0.7h-1.9zm13.3 0h2c2.2 0 2.8-0.1 3.5-0.6 1.5-0.9 1.5-3.6 0.1-4.6-0.7-0.4-1.7-0.6-3.8-0.6h-1.8zm35.3 0c-0.3 0.3-0.5 1.8-0.3 1.5 0.2-0.1 0.7-1.6 0.6-1.7 0 0-0.2 0.1-0.3 0.2z"/>
</svg>