<svg width="118" height="39" viewBox="0 0 118 39" fill="none"
    xmlns="http://www.w3.org/2000/svg">
    <path fill-rule="evenodd" clip-rule="evenodd" d="M32.9326 18.5705V36.2218H33.4182H33.9038V18.5705V0.919189H33.4182H32.9326V18.5705ZM12.4544 1.35525C9.76766 1.81277 6.41471 3.59668 4.58675 5.54129L4.05706 6.10472L5.28042 6.4929C7.71258 7.26462 9.19316 8.08477 12.6773 10.5901C14.9555 12.2283 15.6263 12.63 16.6742 12.9839C19.5246 13.9467 22.0029 12.2138 24.7313 7.35019C25.1216 6.65445 25.4409 5.9748 25.4409 5.83995C25.4409 5.06301 21.9973 2.71892 19.6428 1.89298C17.8585 1.26713 14.4637 1.01309 12.4544 1.35525ZM41.3975 11.4747C41.3988 15.4163 41.4516 18.7244 41.515 18.8262C41.5913 18.9488 41.8603 18.9965 42.3107 18.9674L42.9909 18.9235L43.0268 11.6159L43.0627 4.30824H42.2291H41.3954L41.3975 11.4747ZM46.2511 11.6512V18.9941H47.0142H47.7772V13.1339C47.7772 9.91076 47.824 7.27662 47.8813 7.28015C47.9386 7.28368 48.3587 7.77622 48.8148 8.37453C49.2711 8.97284 50.4601 10.5109 51.4569 11.7924C52.4538 13.0739 53.7857 14.7896 54.4167 15.6051C57.1207 19.1002 57.0178 18.9941 57.705 18.9941H58.3211V11.6512V4.30824H57.5596H56.798L56.7618 10.2024L56.7256 16.0963L55.6737 14.7564C53.4425 11.914 48.2324 5.20408 47.9174 4.76717C47.6234 4.35964 47.5116 4.30824 46.9187 4.30824H46.2511V11.6512ZM59.2922 4.93903V5.57278L61.8241 5.61119L64.356 5.64974L64.3921 12.3219L64.4282 18.9941H65.1884H65.9487L65.9848 12.3219L66.0209 5.64974L68.5181 5.57913L71.0153 5.50853V4.94369V4.37884L65.1538 4.34199L59.2922 4.30513V4.93903ZM72.0096 4.40243C71.894 4.52005 71.886 18.4649 72.0013 18.7707C72.0759 18.9688 72.6585 18.9941 77.1345 18.9941H82.1834V18.2881V17.582H77.8827H73.5819V14.899V12.216H77.2584H80.9348V11.51V10.8039H77.2584H73.5819V8.19152V5.57913H77.7439H81.906V4.94369V4.30824H77.0041C74.3079 4.30824 72.0604 4.3506 72.0096 4.40243ZM84.4032 11.6409V18.9941H85.1662H85.9293V16.6641V14.3342L88.4612 14.3373L90.9931 14.3402L92.5885 16.632L94.184 18.9235L94.9995 18.9664C95.6274 18.9995 95.7989 18.9667 95.745 18.8241C95.7066 18.7223 94.9469 17.5933 94.0568 16.3154L92.4382 13.9919L93.1335 13.6332C94.1146 13.1272 94.7857 12.4314 95.2446 11.4437C95.5841 10.7135 95.6406 10.4195 95.6406 9.38165C95.6407 7.67992 95.3782 6.9846 94.3337 5.91973C93.7334 5.30787 93.2505 4.96317 92.6579 4.72368C91.8675 4.40426 91.6379 4.38477 88.1143 4.33747L84.4032 4.28776V11.6409ZM97.8605 11.6512V18.9941H98.6235H99.3866V11.6512V4.30824H98.6235H97.8605V11.6512ZM102.67 4.40243C102.554 4.52005 102.546 18.4649 102.662 18.7707C102.723 18.9323 102.934 18.9941 103.423 18.9941H104.1L104.137 13.2398L104.173 7.48547L104.658 8.26213C104.925 8.68929 106.181 10.8498 107.449 13.0633C109.625 16.8607 109.778 17.0878 110.155 17.0878C110.534 17.0878 110.7 16.8342 113.329 12.2417L116.104 7.3958L116.14 13.1949L116.177 18.9941H116.938H117.7V11.6512V4.30824H117.038H116.376L113.327 9.67324C111.649 12.624 110.24 15.0387 110.194 15.0392C110.148 15.0398 109.685 14.2936 109.165 13.381C108.645 12.4684 107.612 10.6733 106.869 9.39181C106.126 8.11033 105.165 6.44221 104.733 5.68504L103.949 4.30824H103.355C103.029 4.30824 102.721 4.3506 102.67 4.40243ZM16.6213 5.57264C15.5644 6.05148 14.7536 7.35415 14.7614 8.56093C14.765 9.12408 15.2048 10.1724 15.6341 10.6411C16.0722 11.1195 16.8979 11.5136 17.6531 11.6046C18.9882 11.7656 20.5131 10.6758 20.8483 9.32107C21.1442 8.12473 20.9476 7.244 20.1955 6.39674C19.2693 5.3532 17.8354 5.02248 16.6213 5.57264ZM86.0218 5.67332C85.9709 5.725 85.9293 7.37716 85.9293 9.34479V12.9221H88.4706C91.486 12.9221 92.1624 12.7739 93.0799 11.913C93.8921 11.1512 94.16 10.3998 94.094 9.06901C94.0511 8.20649 93.9684 7.90162 93.6228 7.33268C93.1217 6.50759 92.1293 5.92905 90.8544 5.71837C89.9167 5.56332 86.1642 5.52844 86.0218 5.67332ZM2.76585 7.66198C1.27529 9.74427 0.329115 12.9301 0.331058 15.8614C0.332306 17.8584 0.480059 18.8529 1.03139 20.5762C2.41 24.8847 5.42623 28.2801 9.34771 29.9378C10.426 30.3937 10.7351 30.6492 10.7351 31.0845C10.7351 31.5126 10.0053 32.3465 9.29152 32.7343L8.7234 33.0429L9.17193 33.0878C9.79637 33.1503 11.194 32.7688 12.2377 32.2511C13.9773 31.388 15.1612 29.7457 15.9624 27.0838C16.2993 25.9651 16.3369 25.6201 16.3449 23.5835C16.3545 21.1357 16.2578 20.5781 15.4569 18.4643C14.1642 15.0524 11.0594 11.4741 7.17318 8.91706C6.02293 8.16046 3.76724 6.99124 3.45731 6.99124C3.34119 6.99124 3.03 7.29314 2.76585 7.66198ZM26.7664 7.59138C26.7294 7.76606 26.567 8.60809 26.4056 9.46242C24.3831 20.1648 19.9733 28.6146 14.8277 31.6473C14.2357 31.9962 14.1805 32.0629 14.4513 32.1018C15.1252 32.1991 18.9185 30.9333 20.738 30.004C23.997 28.3394 26.7511 25.6499 28.1808 22.7362C30.2027 18.6152 30.2169 13.2569 28.2159 9.45451C27.7181 8.50854 26.9649 7.27366 26.8859 7.27366C26.8571 7.27366 26.8033 7.4167 26.7664 7.59138ZM102.982 19.5021C102.881 19.6262 102.358 20.8811 101.819 22.291L100.838 24.8543L100.008 24.8875C98.942 24.9302 96.0815 25.2047 95.6754 25.3034C95.4484 25.3585 95.3632 25.3161 95.3632 25.1479C95.3632 25.0207 95.7758 23.8066 96.28 22.4501C96.7843 21.0935 97.1603 19.8866 97.1156 19.7681C96.9416 19.3066 96.0386 19.3329 95.8491 19.8048C95.7943 19.9415 95.2885 21.2867 94.7252 22.7942C94.1618 24.3019 93.591 25.6598 93.4569 25.8119C93.3227 25.964 92.8925 26.2977 92.5009 26.5534C91.1657 27.4252 90.6282 28.5157 90.6221 30.3647C90.6145 32.7222 91.2706 34.0909 92.1872 33.6297C92.464 33.4905 92.6998 32.9196 93.6064 30.1927C94.2478 28.2639 94.7774 26.89 94.8976 26.843C95.9178 26.4447 100.1 26.0275 100.27 26.3073C100.307 26.3685 100.031 27.5282 99.6556 28.8844C98.2624 33.9179 98.2037 34.1813 98.3835 34.583C98.5937 35.0524 99.0324 35.0602 99.3287 34.5997C99.4531 34.4065 100.048 32.4875 100.65 30.3351C101.252 28.1827 101.792 26.3777 101.849 26.3241C101.906 26.2705 102.495 26.1995 103.157 26.1665C104.395 26.1046 104.797 25.9388 104.797 25.4898C104.797 25.0821 104.476 24.9309 103.502 24.8795C102.993 24.8527 102.536 24.7884 102.485 24.7366C102.37 24.6201 102.492 24.2344 103.418 21.7853C104.132 19.895 104.144 19.8386 103.897 19.5612C103.593 19.2186 103.233 19.1953 102.982 19.5021ZM72.5199 20.5257C70.3879 21.1672 68.6277 22.6047 67.7713 24.4036C65.6743 28.8081 67.9654 33.9374 72.5725 35.1527C73.6569 35.4386 75.906 35.4417 76.9737 35.1587C80.5172 34.2193 82.7822 31.0701 82.5569 27.3961C82.3603 24.1898 80.5541 21.76 77.5668 20.6833C76.3455 20.243 73.7305 20.1614 72.5199 20.5257ZM41.0718 20.5004C41.0208 20.5521 40.9792 23.8882 40.9792 27.914V35.2333H42.3666H43.7539V33.1152V30.997L45.8003 30.9946C47.9601 30.9919 49.2532 30.7965 50.3361 30.309C51.2775 29.8851 52.2577 28.8719 52.7122 27.8528C53.05 27.0954 53.1048 26.7953 53.1048 25.7016C53.1048 24.6136 53.0493 24.3065 52.7194 23.5669C52.0099 21.9762 50.6188 20.9697 48.6313 20.6089C47.5276 20.4085 41.2505 20.3184 41.0718 20.5004ZM54.3613 20.5827C54.3248 20.6799 54.3112 24 54.3311 27.961L54.3671 35.1627L55.7198 35.2031L57.0725 35.2435V33.1202V30.997H59.0061H60.94L62.0136 32.5856C62.6041 33.4594 63.2688 34.4126 63.4905 34.7038L63.8938 35.2333H65.2695C66.0261 35.2333 66.6452 35.1953 66.6452 35.1489C66.6452 35.0466 64.402 31.7039 63.8354 30.9618L63.4312 30.4324L63.8854 30.1852C64.6836 29.7508 65.6589 28.7265 66.0539 27.908C66.395 27.201 66.4369 26.9587 66.4364 25.7016C66.4357 24.471 66.3889 24.1897 66.0722 23.5128C65.3497 21.9689 63.9834 21.0003 61.976 20.6094C60.5852 20.3386 54.4613 20.3171 54.3613 20.5827ZM86.1589 20.8057C86.0326 20.9478 85.9293 21.1376 85.9293 21.2276C85.9293 21.3176 85.5281 22.806 85.0376 24.5349C84.1747 27.5779 83.5847 29.3636 82.5426 32.086C81.9541 33.6235 81.9344 33.8824 82.3822 34.181C82.9792 34.5791 83.2194 34.305 83.9044 32.4444C84.0117 32.1532 84.176 31.707 84.2695 31.453C84.3628 31.1988 84.4862 30.9616 84.5433 30.9255C84.6006 30.8895 85.2011 31.572 85.878 32.4421C88.15 35.3634 89.3669 36.5154 91.4676 37.7339C92.0422 38.0673 92.6732 38.3399 92.8696 38.3399C93.5605 38.3399 93.8119 37.6535 93.2475 37.3083C93.0759 37.2033 92.4085 36.8047 91.7645 36.4224C91.0331 35.9885 90.1719 35.3034 89.4708 34.5979C88.2719 33.3915 86.068 30.6563 86.068 30.3748C86.068 30.2816 86.5207 30.0578 87.0738 29.8775C89.5364 29.0748 91.3567 27.7372 92.5879 25.8257C94.0258 23.5933 93.9812 21.372 92.4855 20.7358C91.1679 20.1755 89.2969 21.221 87.2828 23.6432C86.9971 23.9866 86.722 24.2257 86.6715 24.1741C86.621 24.1227 86.7516 23.4204 86.9617 22.6132C87.267 21.4413 87.3123 21.0854 87.1866 20.8465C86.9923 20.4767 86.4698 20.4559 86.1589 20.8057ZM90.9464 22.1024C90.2624 22.4183 88.68 23.9125 87.8073 25.0662C87.0629 26.0507 85.6518 28.4319 85.6518 28.704C85.6518 29.0434 86.5365 28.7988 88.1059 28.0255C90.6016 26.7957 92.2127 24.7979 92.233 22.9078C92.2452 21.7702 91.9991 21.6163 90.9464 22.1024ZM73.6311 22.8123C72.2006 23.1005 70.8197 24.239 70.1859 25.6525C68.8552 28.6209 70.5303 32.1736 73.5704 32.8302C76.753 33.5177 79.5707 31.474 79.7925 28.3171C80.0486 24.6737 77.1679 22.0999 73.6311 22.8123ZM43.7539 25.7016V28.5964H45.7403C48.6041 28.5964 49.5916 28.2352 50.1502 26.9837C50.7037 25.743 50.3344 24.1179 49.349 23.4585C48.5872 22.9487 47.8215 22.8141 45.6615 22.8102L43.7539 22.8068V25.7016ZM57.0725 25.7016V28.5964L59.1188 28.5956C61.308 28.5947 61.8988 28.4938 62.6382 27.9936C64.0616 27.0308 64.0694 24.3773 62.6514 23.4187C61.9788 22.964 61.0254 22.8068 58.9386 22.8068H57.0725V25.7016ZM92.3863 28.5898C92.1221 28.8869 91.8859 30.3329 92.1428 30.0791C92.2942 29.9297 92.7592 28.4405 92.6797 28.3598C92.654 28.3336 92.5221 28.4371 92.3863 28.5898Z" fill="#023E8A"/>
</svg>
